{"title":"Golmaal 3 Hindi Bluray x264 720p DTS-FictionBoy@Mastitorrents","uid":6243800,"size":4692025484,"categoryP":"video","categoryS":"hd___movies","magnet":"?xt=urn:btih:36082ab2d948fbf3978bb2895dca43e8f0e5c049&amp;dn=Golmaal+3+Hindi+Bluray+x264+720p+DTS-FictionBoy%40Mastitorrents&amp;tr=udp%3A%2F%2Ftracker.openbittorrent.com%3A80&amp;tr=udp%3A%2F%2Fopen.demonii.com%3A1337&amp;tr=udp%3A%2F%2Ftracker.coppersurfer.tk%3A6969&amp;tr=udp%3A%2F%2Fexodus.desync.com%3A6969","seeders":5,"leechers":6,"uploader":"amanrulz","files":1,"time":1300168888,"description":"mastitorrents.com\n &lt;a href=&quot;\nhttp://mastitorrents.com/forums/index.php&quot; rel=&quot;nofollow&quot; target=&quot;_NEW&quot;&gt;\nhttp://mastitorrents.com/forums/index.php&lt;/a&gt;\n\nource: BD50\n\nGeneral\n\nFormat                           : Matroska\nFile size                        : 4.37 GiB\nDuration                         : 2h 20mn\n\n\n\nVideo\n\nFormat                           : AVC\nFormat profile                   : &lt;a class=&quot;__cf_email__&quot; href=&quot;/cdn-cgi/l/email-protection&quot; data-cfemail=&quot;4c04252b240c0078627d&quot;&gt;[email&amp;#160;protected]&lt;/a&gt;&lt;script cf-hash='f9e31' type=&quot;text/javascript&quot;&gt;\n/* &lt;![CDATA[ */!function(){try{var t=&quot;currentScript&quot;in document?document.currentScript:function(){for(var t=document.getElementsByTagName(&quot;script&quot;),e=t.length;e--;)if(t[e].getAttribute(&quot;cf-hash&quot;))return t[e]}();if(t&amp;&amp;t.previousSibling){var e,r,n,i,c=t.previousSibling,a=c.getAttribute(&quot;data-cfemail&quot;);if(a){for(e=&quot;&quot;,r=parseInt(a.substr(0,2),16),n=2;a.length-n;n+=2)i=parseInt(a.substr(n,2),16)^r,e+=String.fromCharCode(i);e=document.createTextNode(e),c.parentNode.replaceChild(e,c)}}}catch(u){}}();/* ]]&gt; */&lt;/script&gt;\nFormat settings, ReFrames        : 4 frames\nDuration                         : 2h 20mn\nBit rate                         : 3701 Kbps\nWidth                            : 1 280 pixels\nHeight                           : 576 pixels\nDisplay aspect ratio             : 2.22\nFrame rate                       : 24.000 fps\nBits/(Pixel*Frame)               : 0.209\nStream size                      : 3.54 GiB (81%)\nWriting library                  : x264 core 114 r1913 5fd3dce\n\n\nAudio\n\nFormat                           : DTS\nDuration                         : 2h 25mn\nBit rate mode                    : Constant\nBit rate                         : 755 Kbps\nChannel(s)                       : 6 channels\nChannel positions                : Front: L C R, Side: L R, LFE\nStream size                      : 756 MiB (12%)\nLanguage                         : Hindi\n\nSubtitle Language                : English\n","torrent":{"xt":"urn:btih:36082ab2d948fbf3978bb2895dca43e8f0e5c049","amp;dn":"Golmaal+3+Hindi+Bluray+x264+720p+DTS-FictionBoy%40Mastitorrents","amp;tr":["udp%3A%2F%2Ftracker.openbittorrent.com%3A80","udp%3A%2F%2Fopen.demonii.com%3A1337","udp%3A%2F%2Ftracker.coppersurfer.tk%3A6969","udp%3A%2F%2Fexodus.desync.com%3A6969"],"infoHash":"36082ab2d948fbf3978bb2895dca43e8f0e5c049","infoHashBuffer":{"type":"Buffer","data":[54,8,42,178,217,72,251,243,151,139,178,137,93,202,67,232,240,229,192,73]},"announce":[],"urlList":[]}}